<?xml version="1.0" standalone="no"?>
<!DOCTYPE svg PUBLIC "-//W3C//DTD SVG 20010904//EN"
 "http://www.w3.org/TR/2001/REC-SVG-20010904/DTD/svg10.dtd">
<svg version="1.0" xmlns="http://www.w3.org/2000/svg"
 width="255.000000pt" height="255.000000pt" viewBox="0 0 255.000000 255.000000"
 preserveAspectRatio="xMidYMid meet">
<metadata>
Created by potrace 1.11, written by Peter Selinger 2001-2013
</metadata>
<g transform="translate(0.000000,255.000000) scale(0.100000,-0.100000)"
fill="#000000" stroke="none">
<path d="M754 2251 c-280 -163 -527 -306 -547 -318 l-37 -22 0 -635 0 -634
542 -313 c299 -172 550 -313 558 -313 8 0 259 141 558 313 l542 313 0 634 0
634 -37 23 c-50 31 -1055 612 -1062 613 -3 1 -236 -132 -517 -295z m1011 -129
l480 -277 3 -393 2 -392 -82 0 c-218 -1 -513 -51 -717 -121 -64 -22 -128 -44
-142 -48 -19 -6 -42 -3 -80 11 -293 109 -567 163 -854 171 l-80 2 0 385 0 385
480 277 c264 153 487 278 495 278 8 0 231 -125 495 -278z m320 -1166 c-133
-43 -318 -134 -440 -216 -32 -22 -44 -25 -62 -17 -29 13 -29 18 5 49 37 35
104 71 180 98 34 13 61 24 60 26 -2 1 -37 -3 -78 -11 -91 -16 -181 -47 -230
-79 l-36 -24 -39 20 c-37 19 -38 21 -20 34 68 50 500 140 680 143 l50 0 -70
-23z m-1435 -7 c317 -35 662 -158 909 -323 90 -61 221 -166 221 -177 0 -4 -21
-19 -46 -34 -51 -30 -38 -34 -131 47 -126 110 -353 242 -521 302 -40 14 -76
26 -80 26 -4 0 31 -22 78 -48 205 -115 361 -247 454 -386 l27 -40 -37 -22 -38
-23 -105 102 c-275 265 -564 449 -861 548 -69 23 -127 43 -130 46 -5 5 138 -5
260 -18z m1600 -128 l0 -108 -186 -108 -187 -107 -30 30 -29 30 42 46 c56 61
119 106 216 156 92 48 59 47 -66 -1 -88 -34 -160 -76 -212 -126 l-36 -35 -36
27 c-20 15 -36 29 -36 31 0 9 134 92 213 132 67 33 324 139 345 142 1 0 2 -49
2 -109z m-1766 16 c190 -75 404 -201 581 -342 88 -71 282 -251 295 -274 8 -15
1 -23 -41 -45 l-50 -28 -75 43 c-68 39 -80 51 -139 139 -122 184 -294 317
-490 379 -145 46 -155 44 -56 -9 51 -27 124 -72 161 -100 68 -51 199 -181 219
-219 8 -13 -63 23 -206 105 -120 70 -257 149 -305 176 l-88 50 0 95 0 95 33
-7 c17 -4 90 -30 161 -58z"/>
</g>
</svg>
